<svg id="Group_4896" data-name="Group 4896" xmlns="http://www.w3.org/2000/svg" width="22" height="22" viewBox="0 0 22 22">
  <rect id="Rectangle_4513" data-name="Rectangle 4513" width="22" height="22" fill="none"/>
  <path id="Path_3895" data-name="Path 3895" d="M56,55.125V41.375A1.375,1.375,0,0,1,57.375,40H64.25a1.375,1.375,0,0,1,1.375,1.375v13.75" transform="translate(-51.188 -36.563)" opacity="0.2"/>
  <path id="Path_3896" data-name="Path 3896" d="M56,55.125V41.375A1.375,1.375,0,0,1,57.375,40H64.25a1.375,1.375,0,0,1,1.375,1.375v13.75" transform="translate(-51.188 -36.563)" fill="none" stroke="#000" stroke-linecap="round" stroke-linejoin="round" stroke-width="1"/>
  <line id="Line_1490" data-name="Line 1490" x2="13.75" transform="translate(2.75 18.563)" fill="none" stroke="#000" stroke-linecap="round" stroke-linejoin="round" stroke-width="1"/>
  <path id="Path_3897" data-name="Path 3897" d="M168,60.813h2.063a1.375,1.375,0,0,1,1.375,1.375v3.438A1.375,1.375,0,0,0,172.813,67h0a1.375,1.375,0,0,0,1.375-1.375v-7a1.384,1.384,0,0,0-.4-.971L172.125,56" transform="translate(-153.563 -51.188)" fill="none" stroke="#000" stroke-linecap="round" stroke-linejoin="round" stroke-width="1"/>
  <line id="Line_1491" data-name="Line 1491" x1="4.125" transform="translate(7.563 9.625)" fill="none" stroke="#000" stroke-linecap="round" stroke-linejoin="round" stroke-width="1"/>
</svg>
