<svg xmlns="http://www.w3.org/2000/svg" width="86" height="86" viewBox="0 0 86 86">
  <g id="Group_4947" data-name="Group 4947" transform="translate(-273 -446)">
    <rect id="Rectangle_4435" data-name="Rectangle 4435" width="86" height="86" rx="30" transform="translate(273 446)" fill="#f1f1f4" opacity="0.8"/>
    <g id="Group_4784" data-name="Group 4784" transform="translate(300 473)">
      <path id="Path_3845" data-name="Path 3845" d="M0,0H32V32H0Z" fill="none"/>
      <path id="Path_3846" data-name="Path 3846" d="M5.667,10a2.667,2.667,0,1,0,2.667,2.667A2.675,2.675,0,0,0,5.667,10Zm18.667,0A2.667,2.667,0,1,0,27,12.667,2.675,2.675,0,0,0,24.333,10ZM15,10a2.667,2.667,0,1,0,2.667,2.667A2.675,2.675,0,0,0,15,10Z" transform="translate(1 3.333)"/>
    </g>
  </g>
</svg>
