<svg xmlns="http://www.w3.org/2000/svg" width="45" height="45" viewBox="0 0 45 45">
  <g id="Group_4824" data-name="Group 4824" transform="translate(-35 -315)">
    <g id="Group_4814" data-name="Group 4814" transform="translate(0 -64)">
      <rect id="Rectangle_4462" data-name="Rectangle 4462" width="45" height="45" rx="10" transform="translate(35 379)" fill="#fff"/>
      <rect id="Rectangle_4463" data-name="Rectangle 4463" width="39" height="39" rx="8" transform="translate(38 382)" fill="#fcc735"/>
      <g id="Group_4811" data-name="Group 4811" transform="translate(-54.86 41.578)">
        <g id="Group_1054" data-name="Group 1054" transform="translate(97 356)">
          <g id="Group_1052" data-name="Group 1052" transform="translate(29.881)">
            <g id="Group_1051" data-name="Group 1051">
              <g id="Group_1050" data-name="Group 1050" transform="translate(0.654 0.559)">
                <path id="Path_1007" data-name="Path 1007" d="M224.647,225.913a.2.2,0,0,1-.132.2l.146.3h-.135l-.13-.277h-.149v.277h-.119v-.721h.276A.216.216,0,0,1,224.647,225.913Zm-.263.127c.089,0,.14-.043.14-.122a.121.121,0,0,0-.136-.128h-.14v.25Z" transform="translate(-224.128 -225.691)" fill="#191919"/>
              </g>
              <path id="Path_1008" data-name="Path 1008" d="M222.832,225.635a.92.92,0,1,1,.92-.92A.921.921,0,0,1,222.832,225.635Zm0-1.7a.776.776,0,1,0,.776.776A.777.777,0,0,0,222.832,223.939Z" transform="translate(-221.912 -223.795)" fill="#191919"/>
            </g>
          </g>
          <path id="Path_1009" data-name="Path 1009" d="M135.671,235.634a1.77,1.77,0,0,1-1.125-.342,1.259,1.259,0,0,1-.437-1.057,1.309,1.309,0,0,1,.869-1.331,2.945,2.945,0,0,1,.893-.194,3.873,3.873,0,0,0,.859-.13q.253-.086.253-.3v-.012a.328.328,0,0,0-.144-.287.631.631,0,0,0-.369-.1.685.685,0,0,0-.4.108.456.456,0,0,0-.186.33H134.3a1.637,1.637,0,0,1,.28-.808,1.727,1.727,0,0,1,.726-.594,2.817,2.817,0,0,1,1.193-.223,3.024,3.024,0,0,1,1.183.21,1.8,1.8,0,0,1,.762.565,1.3,1.3,0,0,1,.267.8v3.286H137.1v-.675h-.038a1.315,1.315,0,0,1-.568.576A1.82,1.82,0,0,1,135.671,235.634Zm.562-1.087a.846.846,0,0,0,.528-.18.6.6,0,0,0,.234-.508v-.4a3.139,3.139,0,0,1-.687.175.787.787,0,0,0-.437.181.429.429,0,0,0-.138.319.361.361,0,0,0,.14.306A.581.581,0,0,0,136.233,234.547Z" transform="translate(-127.815 -228.844)" fill="#191919"/>
          <path id="Path_1010" data-name="Path 1010" d="M153.18,235.559v-4.8h1.674v.912h.05a1.391,1.391,0,0,1,.419-.74,1.019,1.019,0,0,1,.669-.235,1.434,1.434,0,0,1,.366.047,1.34,1.34,0,0,1,.322.128l-.5,1.412a1.9,1.9,0,0,0-.222-.087.817.817,0,0,0-.253-.038.753.753,0,0,0-.559.245.911.911,0,0,0-.241.654v2.5Z" transform="translate(-141.763 -228.844)" fill="#191919"/>
          <path id="Path_1011" data-name="Path 1011" d="M166.975,235.634a1.77,1.77,0,0,1-1.125-.342,1.259,1.259,0,0,1-.437-1.057,1.308,1.308,0,0,1,.868-1.331,2.949,2.949,0,0,1,.893-.194,3.867,3.867,0,0,0,.859-.13q.253-.086.253-.3v-.012a.328.328,0,0,0-.144-.287.632.632,0,0,0-.369-.1.687.687,0,0,0-.4.108.457.457,0,0,0-.186.33H165.6a1.635,1.635,0,0,1,.28-.808,1.728,1.728,0,0,1,.726-.594,2.818,2.818,0,0,1,1.193-.223,3.024,3.024,0,0,1,1.183.21,1.8,1.8,0,0,1,.762.565,1.3,1.3,0,0,1,.267.8v3.286H168.4v-.675h-.038a1.317,1.317,0,0,1-.568.576A1.822,1.822,0,0,1,166.975,235.634Zm.563-1.087a.845.845,0,0,0,.528-.18.6.6,0,0,0,.234-.508v-.4a3.134,3.134,0,0,1-.687.175.788.788,0,0,0-.437.181.429.429,0,0,0-.138.319.361.361,0,0,0,.14.306A.581.581,0,0,0,167.537,234.547Z" transform="translate(-150.71 -228.844)" fill="#191919"/>
          <path id="Path_1012" data-name="Path 1012" d="M186.387,237.408a3.388,3.388,0,0,1-1.236-.2,1.885,1.885,0,0,1-.8-.55,1.4,1.4,0,0,1-.317-.786H185.7a.386.386,0,0,0,.239.283,1.2,1.2,0,0,0,.5.092.936.936,0,0,0,.554-.156.621.621,0,0,0,.22-.544v-.812h-.05a1.068,1.068,0,0,1-.5.564,1.736,1.736,0,0,1-.848.2,1.913,1.913,0,0,1-.942-.237,1.688,1.688,0,0,1-.687-.753,3.018,3.018,0,0,1-.258-1.346,3.178,3.178,0,0,1,.27-1.412,1.839,1.839,0,0,1,.7-.8,1.758,1.758,0,0,1,.9-.253,1.361,1.361,0,0,1,.871.267,1.481,1.481,0,0,1,.478.633h.037v-.837h1.725v4.786a1.618,1.618,0,0,1-.314,1,1.968,1.968,0,0,1-.883.639A3.644,3.644,0,0,1,186.387,237.408Zm.062-3.137a.644.644,0,0,0,.559-.294,1.423,1.423,0,0,0,.2-.818,1.482,1.482,0,0,0-.2-.836.64.64,0,0,0-.559-.3.625.625,0,0,0-.553.3,1.52,1.52,0,0,0-.2.836,1.456,1.456,0,0,0,.2.823A.631.631,0,0,0,186.449,234.272Z" transform="translate(-164.249 -228.844)" fill="#191919"/>
          <path id="Path_1013" data-name="Path 1013" d="M206.446,235.647a2.277,2.277,0,0,1-2.474-2.474,2.7,2.7,0,0,1,.3-1.3,2.142,2.142,0,0,1,.847-.865,2.835,2.835,0,0,1,2.551-.013,2.058,2.058,0,0,1,.831.848,2.752,2.752,0,0,1,.3,1.317v.4h-3.124v.075a.8.8,0,0,0,.214.573.784.784,0,0,0,.6.226.933.933,0,0,0,.464-.111.581.581,0,0,0,.273-.314H208.8a1.768,1.768,0,0,1-.736,1.193A2.694,2.694,0,0,1,206.446,235.647Zm-.775-3.036h1.537a.665.665,0,0,0-.223-.5.776.776,0,0,0-.539-.2.805.805,0,0,0-.542.194A.652.652,0,0,0,205.672,232.61Z" transform="translate(-178.91 -228.844)" fill="#191919"/>
          <path id="Path_1014" data-name="Path 1014" d="M116.469,235.481h-2.5a.132.132,0,0,0-.132.132v.965a.132.132,0,0,0,.132.133h1.111a1.793,1.793,0,0,1-.145.244,1.352,1.352,0,0,1-2.256.041,1.726,1.726,0,0,1-.139-.22c-.01-.019-.021-.037-.031-.056a.7.7,0,0,0-.36-.266l-.01,0a.692.692,0,0,0-.152-.03h-1.3a3.324,3.324,0,0,0,.36,1.185,2.766,2.766,0,0,0,1.1,1.127,3.279,3.279,0,0,0,1.634.4,3.219,3.219,0,0,0,1.48-.328,2.45,2.45,0,0,0,1.015-.946,2.855,2.855,0,0,0,.369-1.489v-.884Z" transform="translate(-110.687 -232.342)" fill="#191919"/>
          <path id="Path_1015" data-name="Path 1015" d="M116.115,225.74a2.613,2.613,0,0,0-.991-.775,3.415,3.415,0,0,0-2.929.1,2.846,2.846,0,0,0-1.127,1.117,3.242,3.242,0,0,0-.389,1.248h1.281a.683.683,0,0,0,.165-.032.7.7,0,0,0,.363-.269c.019-.039.039-.077.061-.114v0l.025-.042h0a1.622,1.622,0,0,1,.113-.168h0a1.4,1.4,0,0,1,1.1-.57,1.339,1.339,0,0,1,.858.322h0l.051.044h0l0,0h0a1.679,1.679,0,0,1,.179.2l.014.018a.209.209,0,0,0,.145.059h1.525A2.182,2.182,0,0,0,116.115,225.74Z" transform="translate(-110.679 -224.445)" fill="#191919"/>
        </g>
      </g>
    </g>
  </g>
</svg>
