<svg xmlns="http://www.w3.org/2000/svg" width="350" height="180" viewBox="0 0 350 180">
  <g id="Group_5190" data-name="Group 5190" transform="translate(-20 -213)">
    <path id="_369896aa1d77c963a5fd0b46cd144174" data-name="369896aa1d77c963a5fd0b46cd144174" d="M12,0H338a12,12,0,0,1,12,12V168a12,12,0,0,1-12,12H12A12,12,0,0,1,0,168V12A12,12,0,0,1,12,0Z" transform="translate(20 213)" fill="#9ea6b5"/>
    <g id="Group_5189" data-name="Group 5189" transform="translate(168 276)">
      <rect id="Rectangle_4682" data-name="Rectangle 4682" width="55" height="55" fill="none"/>
      <path id="Path_4078" data-name="Path 4078" d="M46.678,25.783,29.258,29.258,25.783,46.678a1.727,1.727,0,0,0,.475,1.554L48.793,70.767a1.705,1.705,0,0,0,2.439,0L70.767,51.232a1.705,1.705,0,0,0,0-2.439L48.232,26.258A1.727,1.727,0,0,0,46.678,25.783Z" transform="translate(-20.192 -20.192)" fill="none" stroke="#535d6f" stroke-linecap="round" stroke-linejoin="round" stroke-width="4"/>
      <circle id="Ellipse_325" data-name="Ellipse 325" cx="3.454" cy="3.454" r="3.454" transform="translate(14.678 14.678)" fill="#535d6f"/>
    </g>
  </g>
</svg>
