<svg id="Group_4897" data-name="Group 4897" xmlns="http://www.w3.org/2000/svg" width="22" height="22" viewBox="0 0 22 22">
  <rect id="Rectangle_4514" data-name="Rectangle 4514" width="22" height="22" fill="none"/>
  <path id="Path_3898" data-name="Path 3898" d="M37.5,96v1.375a2.75,2.75,0,0,1-5.5,0V96" transform="translate(-29.25 -87.75)" opacity="0.2"/>
  <path id="Path_3899" data-name="Path 3899" d="M165.5,96v1.375a2.75,2.75,0,0,1-5.5,0V96" transform="translate(-146.25 -87.75)" opacity="0.2"/>
  <path id="Path_3900" data-name="Path 3900" d="M48,139.6v5.878a.687.687,0,0,0,.688.688H61.063a.687.687,0,0,0,.688-.687V139.6" transform="translate(-43.875 -127.603)" fill="none" stroke="#000" stroke-linecap="round" stroke-linejoin="round" stroke-width="1"/>
  <path id="Path_3901" data-name="Path 3901" d="M33.891,40H46.609a.7.7,0,0,1,.662.5L48.5,44.813H32L33.229,40.5A.7.7,0,0,1,33.891,40Z" transform="translate(-29.25 -36.563)" fill="none" stroke="#000" stroke-linecap="round" stroke-linejoin="round" stroke-width="1"/>
  <path id="Path_3902" data-name="Path 3902" d="M37.5,96v1.375a2.75,2.75,0,0,1-5.5,0V96" transform="translate(-29.25 -87.75)" fill="none" stroke="#000" stroke-linecap="round" stroke-linejoin="round" stroke-width="1"/>
  <path id="Path_3903" data-name="Path 3903" d="M101.5,96v1.375a2.75,2.75,0,0,1-5.5,0V96" transform="translate(-87.75 -87.75)" fill="none" stroke="#000" stroke-linecap="round" stroke-linejoin="round" stroke-width="1"/>
  <path id="Path_3904" data-name="Path 3904" d="M165.5,96v1.375a2.75,2.75,0,0,1-5.5,0V96" transform="translate(-146.25 -87.75)" fill="none" stroke="#000" stroke-linecap="round" stroke-linejoin="round" stroke-width="1"/>
</svg>
